<?xml version="1.0" encoding="UTF-8"?>
<svg xmlns="http://www.w3.org/2000/svg" xmlns:xlink="http://www.w3.org/1999/xlink" width="32px" height="32px" viewBox="0 0 32 21" version="1.1">
<g id="surface1">
<path style=" stroke:none;fill-rule:nonzero;fill:rgb(0%,0%,0%);fill-opacity:1;" d="M 13.585938 14.773438 C 13.585938 14.832031 13.519531 14.878906 13.433594 14.878906 C 13.335938 14.886719 13.269531 14.839844 13.269531 14.773438 C 13.269531 14.714844 13.335938 14.667969 13.421875 14.667969 C 13.507812 14.660156 13.585938 14.707031 13.585938 14.773438 Z M 12.671875 14.640625 C 12.648438 14.699219 12.710938 14.765625 12.796875 14.785156 C 12.875 14.8125 12.960938 14.785156 12.980469 14.726562 C 12.996094 14.667969 12.941406 14.601562 12.851562 14.574219 C 12.777344 14.554688 12.691406 14.585938 12.671875 14.640625 Z M 13.972656 14.59375 C 13.886719 14.613281 13.828125 14.667969 13.835938 14.734375 C 13.84375 14.792969 13.921875 14.832031 14.007812 14.808594 C 14.09375 14.789062 14.152344 14.734375 14.144531 14.675781 C 14.136719 14.621094 14.054688 14.585938 13.972656 14.59375 Z M 15.90625 3.5 C 11.828125 3.5 8.707031 6.546875 8.707031 10.5625 C 8.707031 13.773438 10.757812 16.519531 13.691406 17.488281 C 14.066406 17.554688 14.199219 17.324219 14.199219 17.136719 C 14.199219 16.957031 14.191406 15.96875 14.191406 15.359375 C 14.191406 15.359375 12.132812 15.792969 11.699219 14.496094 C 11.699219 14.496094 11.363281 13.65625 10.882812 13.4375 C 10.882812 13.4375 10.210938 12.984375 10.929688 12.992188 C 10.929688 12.992188 11.664062 13.050781 12.066406 13.738281 C 12.710938 14.855469 13.789062 14.535156 14.210938 14.34375 C 14.277344 13.882812 14.46875 13.558594 14.679688 13.367188 C 13.035156 13.1875 11.378906 12.953125 11.378906 10.167969 C 11.378906 9.375 11.601562 8.972656 12.070312 8.464844 C 11.996094 8.277344 11.746094 7.5 12.148438 6.5 C 12.761719 6.3125 14.175781 7.28125 14.175781 7.28125 C 14.765625 7.117188 15.398438 7.035156 16.023438 7.035156 C 16.648438 7.035156 17.28125 7.117188 17.871094 7.28125 C 17.871094 7.28125 19.285156 6.308594 19.898438 6.5 C 20.300781 7.503906 20.050781 8.277344 19.976562 8.464844 C 20.445312 8.976562 20.734375 9.375 20.734375 10.167969 C 20.734375 12.964844 19.003906 13.1875 17.359375 13.367188 C 17.628906 13.597656 17.859375 14.03125 17.859375 14.710938 C 17.859375 15.6875 17.851562 16.894531 17.851562 17.132812 C 17.851562 17.320312 17.984375 17.550781 18.359375 17.484375 C 21.300781 16.519531 23.292969 13.773438 23.292969 10.5625 C 23.292969 6.546875 19.984375 3.5 15.90625 3.5 Z M 11.566406 13.484375 C 11.527344 13.511719 11.535156 13.582031 11.585938 13.636719 C 11.632812 13.679688 11.699219 13.703125 11.738281 13.664062 C 11.777344 13.636719 11.769531 13.570312 11.71875 13.511719 C 11.671875 13.46875 11.601562 13.445312 11.566406 13.484375 Z M 11.246094 13.25 C 11.226562 13.289062 11.257812 13.335938 11.316406 13.363281 C 11.363281 13.390625 11.421875 13.382812 11.441406 13.34375 C 11.460938 13.304688 11.433594 13.257812 11.375 13.230469 C 11.316406 13.210938 11.269531 13.222656 11.246094 13.25 Z M 12.199219 14.28125 C 12.152344 14.316406 12.171875 14.40625 12.238281 14.460938 C 12.304688 14.527344 12.390625 14.535156 12.429688 14.488281 C 12.46875 14.453125 12.449219 14.363281 12.390625 14.308594 C 12.328125 14.242188 12.238281 14.234375 12.199219 14.28125 Z M 11.863281 13.855469 C 11.816406 13.882812 11.816406 13.960938 11.863281 14.027344 C 11.914062 14.09375 11.992188 14.121094 12.03125 14.09375 C 12.078125 14.054688 12.078125 13.980469 12.03125 13.914062 C 11.988281 13.847656 11.914062 13.816406 11.863281 13.855469 Z M 11.863281 13.855469 "/>
</g>
</svg>
