<?xml version="1.0" encoding="UTF-8"?>
<svg xmlns="http://www.w3.org/2000/svg" xmlns:xlink="http://www.w3.org/1999/xlink" width="32px" height="32px" viewBox="0 0 32 32" version="1.1">
<g id="surface1">
<path style=" stroke:none;fill-rule:evenodd;fill:rgb(0%,49.411765%,73.333333%);fill-opacity:1;" d="M 3.554688 32 L 28.445312 32 C 30.40625 32 32 30.40625 32 28.445312 L 32 3.554688 C 32 1.59375 30.40625 0 28.445312 0 L 3.554688 0 C 1.59375 0 0 1.59375 0 3.554688 L 0 28.445312 C 0 30.40625 1.59375 32 3.554688 32 Z M 3.554688 32 "/>
<path style=" stroke:none;fill-rule:evenodd;fill:rgb(100%,100%,100%);fill-opacity:1;" d="M 27.554688 27.554688 L 22.808594 27.554688 L 22.808594 19.46875 C 22.808594 17.25 21.964844 16.011719 20.210938 16.011719 C 18.300781 16.011719 17.300781 17.300781 17.300781 19.46875 L 17.300781 27.554688 L 12.726562 27.554688 L 12.726562 12.148438 L 17.300781 12.148438 L 17.300781 14.222656 C 17.300781 14.222656 18.679688 11.675781 21.949219 11.675781 C 25.214844 11.675781 27.554688 13.671875 27.554688 17.800781 Z M 7.265625 10.128906 C 5.707031 10.128906 4.445312 8.859375 4.445312 7.289062 C 4.445312 5.71875 5.707031 4.445312 7.265625 4.445312 C 8.824219 4.445312 10.085938 5.71875 10.085938 7.289062 C 10.085938 8.859375 8.824219 10.128906 7.265625 10.128906 Z M 4.902344 27.554688 L 9.675781 27.554688 L 9.675781 12.148438 L 4.902344 12.148438 Z M 4.902344 27.554688 "/>
</g>
</svg>
